<?xml version="1.0" encoding="iso-8859-1"?>
<!-- Generator: Adobe Illustrator 19.0.0, SVG Export Plug-In . SVG Version: 6.00 Build 0)  -->
<svg xmlns="http://www.w3.org/2000/svg" xmlns:xlink="http://www.w3.org/1999/xlink" version="1.1" id="Layer_1" x="0px" y="0px" viewBox="0 0 425.617 425.617" style="enable-background:new 0 0 425.617 425.617;" xml:space="preserve" width="512" height="512">
<g>
	<g>
		<g>
			<path style="fill:#218649;" d="M212.029,246.705c-7.584,0-13.732-6.148-13.732-13.732V89.003c0-26.5,21.563-48.061,48.063-48.061     c7.584,0,13.73,6.147,13.73,13.73c0,7.584-6.146,13.731-13.73,13.731c-11.359,0-20.601,9.241-20.601,20.599v143.97     C225.76,240.557,219.611,246.705,212.029,246.705z"/>
			<path style="fill:#218649;" d="M212.029,159.829c-7.584,0-13.732-6.146-13.732-13.732c0-11.357-9.241-20.598-20.599-20.598     c-7.584,0-13.732-6.146-13.732-13.73c0-7.584,6.147-13.733,13.732-13.733c26.502,0,48.062,21.563,48.062,48.062     C225.76,153.682,219.611,159.829,212.029,159.829z"/>
			<rect x="198.297" y="191.416" style="opacity:0.2;fill:#222222;" width="27.462" height="16.893"/>
		</g>
		<g>
			<circle style="fill:#77BC1F;" cx="225.76" cy="159.829" r="10.822"/>
			<path style="opacity:0.2;fill:#218649;" d="M225.76,149.008c-5.977,0-10.822,4.845-10.822,10.82     c0,5.977,4.846,10.822,10.822,10.822V149.008z"/>
		</g>
		<g>
			<circle style="fill:#77BC1F;" cx="198.298" cy="84.188" r="10.822"/>
			<path style="opacity:0.2;fill:#218649;" d="M198.299,73.368c-5.977,0-10.823,4.845-10.823,10.82     c0,5.976,4.846,10.821,10.823,10.821V73.368z"/>
		</g>
		<g>
			<path style="fill:#77BC1F;" d="M286.817,18.516c6.322,4.697,8.041,13.266,4.351,19.976h7.085c8.598,0,15.566,6.97,15.566,15.566     c0,8.599-6.969,15.568-15.566,15.568h-7.087c3.692,6.711,1.974,15.278-4.349,19.975c-6.9,5.129-16.651,3.691-21.779-3.209     L247.91,63.343c-0.012-0.016-0.013-0.041-0.023-0.059c-1.908-2.584-3.049-5.768-3.049-9.227c0-3.411,1.11-6.558,2.972-9.123     c0.035-0.055,0.065-0.113,0.1-0.161l17.128-23.048C270.166,14.826,279.917,13.388,286.817,18.516z"/>
			<path style="opacity:0.2;fill:#218649;" d="M298.253,69.627h-7.087c3.692,6.711,1.974,15.278-4.349,19.975     c-6.9,5.129-16.651,3.691-21.779-3.209L247.91,63.343c-0.012-0.016-0.013-0.041-0.023-0.059     c-1.908-2.584-3.049-5.768-3.049-9.227h68.98C313.819,62.657,306.85,69.627,298.253,69.627z"/>
		</g>
		<g>
			<path style="fill:#77BC1F;" d="M140.034,76.225c-6.32,4.697-8.039,13.266-4.349,19.975h-7.085     c-8.599,0-15.568,6.97-15.568,15.568c0,8.597,6.969,15.566,15.568,15.566h7.086c-3.691,6.712-1.973,15.279,4.348,19.977     c6.9,5.127,16.652,3.69,21.78-3.211l17.127-23.047c0.011-0.017,0.013-0.042,0.024-0.059c1.906-2.585,3.048-5.77,3.048-9.227     c0-3.412-1.11-6.558-2.972-9.125c-0.034-0.053-0.066-0.112-0.101-0.161l-17.127-23.048     C156.687,72.534,146.935,71.097,140.034,76.225z"/>
			<path style="opacity:0.2;fill:#218649;" d="M128.601,127.335h7.086c-3.691,6.712-1.973,15.279,4.348,19.977     c6.9,5.127,16.652,3.69,21.78-3.211l17.127-23.047c0.011-0.017,0.013-0.042,0.024-0.059c1.906-2.585,3.048-5.77,3.048-9.227     h-68.981C113.033,120.365,120.002,127.335,128.601,127.335z"/>
		</g>
		<g>
			<path style="fill:#77BC1F;" d="M216.864,0.169c-7.791-1.15-15.064,3.694-17.2,11.049l-5.01-5.01     c-6.079-6.08-15.934-6.08-22.016,0c-6.079,6.079-6.079,15.936,0,22.015l5.012,5.013c-7.356,2.134-12.199,9.406-11.05,17.198     c1.253,8.505,9.165,14.385,17.671,13.133l28.408-4.188c0.02-0.003,0.038-0.021,0.059-0.024c3.176-0.48,6.234-1.924,8.678-4.369     c2.413-2.412,3.853-5.422,4.351-8.552c0.015-0.063,0.035-0.129,0.042-0.188l4.189-28.405     C231.249,9.332,225.369,1.42,216.864,0.169z"/>
			<path style="opacity:0.2;fill:#218649;" d="M172.637,28.222l5.012,5.013c-7.356,2.134-12.199,9.406-11.05,17.198     c1.253,8.505,9.165,14.385,17.671,13.133l28.408-4.188c0.02-0.003,0.038-0.021,0.059-0.024c3.176-0.48,6.234-1.924,8.678-4.369     L172.637,6.208C166.559,12.287,166.559,22.143,172.637,28.222z"/>
		</g>
	</g>
	<g>
		<circle style="fill:#77BC1F;" cx="286.547" cy="203.388" r="25.841"/>
		<path style="opacity:0.2;fill:#218649;" d="M286.548,177.549c-14.27,0-25.842,11.568-25.842,25.839    c0,14.271,11.571,25.84,25.842,25.84V177.549z"/>
	</g>
	<g>
		<circle style="fill:#77BC1F;" cx="128.885" cy="209.308" r="25.84"/>
		<path style="opacity:0.2;fill:#218649;" d="M128.885,183.469c-14.27,0-25.84,11.568-25.84,25.839    c0,14.271,11.57,25.84,25.84,25.84V183.469z"/>
	</g>
	<g>
		<polygon style="fill:#985F35;" points="355.635,248.681 69.99,248.681 107.111,425.617 318.511,425.617   "/>
		<polygon style="opacity:0.2;fill:#222222;" points="69.99,248.681 107.111,425.617 212.813,425.617 212.813,248.681   "/>
		<polygon style="opacity:0.2;fill:#222222;" points="69.99,248.681 73.987,267.74 351.635,267.74 355.635,248.681   "/>
	</g>
	<g>
		<rect x="51.059" y="203.388" style="fill:#65513C;" width="323.498" height="46.021"/>
		<rect x="51.059" y="203.388" style="opacity:0.3;fill:#222222;" width="161.749" height="46.021"/>
	</g>
</g>















</svg>
