<svg viewBox="0 0 90 90" xmlns="http://www.w3.org/2000/svg">
    <g fill="#9cc925">
        <path
            d="m36.56 49.86c-4.47-3.48-7.35-3-9-.87s-1.43 5.49 3 8.5c4.7 3.16 13.16 3.22 13.16 3.22s-2.72-7.37-7.16-10.85z" />
        <path
            d="m53.44 49.86c-4.44 3.48-7.21 10.86-7.21 10.86s8.45-.06 13.16-3.22c4.47-3 4.69-6.39 3-8.5s-4.47-2.62-8.95.86z" />
        <path
            d="m36.56 65.54c-4.47-3.48-7.35-3-9-.86s-1.43 5.49 3 8.5c4.7 3.17 13.16 3.22 13.16 3.22s-2.72-7.4-7.16-10.86z" />
        <path
            d="m53.44 65.54c-4.44 3.46-7.21 10.87-7.21 10.87s8.45-.06 13.16-3.22c4.47-3 4.69-6.39 3-8.5s-4.47-2.62-8.95.85z" />
    </g>
    <path d="m43.37 36.8v46.57a1.63 1.63 0 1 0 3.26 0v-46.57z" fill="#7ba60d" />
    <path
        d="m57.25 32c0 9.22-5.48 13.33-12.25 13.33s-12.25-4.15-12.25-13.33 12.25-27 12.25-27 12.25 17.74 12.25 27z"
        fill="#ffa400" />
    <path
        d="m58.84 32c0 9.22-6.31 13.33-14.09 13.33s-13.18-4.33-14.09-13.33-8.58-26.69-8.58-26.69 36.76 17.43 36.76 26.69z"
        fill="#ffb914" />
    <path
        d="m31.17 32c0 9.22 6.31 13.33 14.09 13.33s13.17-4.33 14.09-13.33 8.57-26.69 8.57-26.69-36.75 17.43-36.75 26.69z"
        fill="#ffd900" />
    <path d="m45 18c-7.44 4.85-13.83 10.12-13.83 14 0 9.12 6.17 13.23 13.83 13.32" fill="#f794ff"
        opacity=".1" />
</svg>